# xmcd CD Database Entry
#
# Track frame offsets:
# 150
# 12412
# 29032
# 46755
# 51610
# 63605
# 77592
# 93485
# 112720
# 130305
# 150687
# 153290
# 178935
# 198712
# 214107
#
# Disc length: 2929 seconds
#
# Revision: 1
# Processed by: cddbd v1.4PL0 Copyright (c) Steve Scherf et al.
# Submitted via: tcd 2.0b
#
DISCID=d20b6f0f
DTITLE=Old Reliable - Pulse of Light/Dark Landscape
DYEAR=1900
DGENRE=
TTITLE0=Must Of Been the Devil
TTITLE1=Lightning Fast
TTITLE2=Tight Knit Seams
TTITLE3=Pulse of Light
TTITLE4=Broke Down Poor
TTITLE5=Catch That River
TTITLE6=Straight to her Beauty
TTITLE7=In the Clover
TTITLE8=Darkscape/From Wishing
TTITLE9=Show me to the Bar
TTITLE10=Dark Landscape
TTITLE11=Silver Rain/Landpulse
TTITLE12=Darkness
TTITLE13=For Too Long
TTITLE14=Pulse of Light/Dark Landscape
EXTD=
EXTT0=
EXTT1=
EXTT2=
EXTT3=
EXTT4=
EXTT5=
EXTT6=
EXTT7=
EXTT8=
EXTT9=Featuring Mike Caldwell
EXTT10=
EXTT11=
EXTT12=
EXTT13=
EXTT14=
PLAYORDER=
